<svg xmlns="http://www.w3.org/2000/svg" xmlns:xlink="http://www.w3.org/1999/xlink" id="Capa_1" x="0px" y="0px" viewBox="0 0 280.4 248.6" style="enable-background:new 0 0 280.4 248.6;" xml:space="preserve"><style type="text/css">	.st0{fill:#076AA8;}	.st1{fill:#F5090B;}	.st2{fill:#7FC31D;}	.st3{fill:#FC8C15;}	.st4{fill:#193679;}	.st5{fill:#740C11;}	.st6{fill:#C8E60F;}	.st7{fill:#0769AC;}	.st8{fill:#CAE412;}	.st9{fill:#086AAA;}	.st10{fill:#086BA8;}	.st11{fill:#CAE60E;}	.st12{fill:#056AA9;}</style><g id="CONVIVIR">	<g>		<g>			<g>				<path class="st0" d="M133.9,104.3c0.1-0.2,0.5-0.3,0.8-0.2c0.3,0,0.6-0.1,0.6,0.1c0.1,0.1,0.2,0.5-0.1,0.6     c-0.3,0.1-0.7,0.1-0.9,0.2c-0.2,0.1-0.5,0.3-0.8,0.2c-0.2-0.1-0.5-0.2-0.5-0.3C132.8,104.3,133.8,104.5,133.9,104.3L133.9,104.3     z"></path>				<path class="st0" d="M149.6,97.5c0.2,0,0.3,0,0.3-0.1c0.1-0.1,0.2-0.1,0.2,0.1c0,0.2,0,0.3-0.1,0.3c-0.1,0-0.3,0-0.4,0     c-0.1,0.1-0.3,0.1-0.4,0.1C148.7,97.4,149.4,97.5,149.6,97.5L149.6,97.5z"></path>				<path class="st0" d="M154.5,96.5c0.1-0.2,0.6-0.6,0.8-0.4c0.2,0.2,0.2,0,0.3,0c0.1,0,0.3,0.1,0.3,0.2c0,0.2-0.3,0.3-0.4,0.4     c-0.1,0-0.3,0.1-0.3,0.3c0,0.1-0.2,0.4-0.3,0.4c-0.1-0.1-0.2-0.1-0.4,0c-0.2,0.1-0.6,0.6-0.7,0.7c-0.1,0.1-0.4,0.1-0.4-0.1     C153.6,97.7,154.4,96.7,154.5,96.5L154.5,96.5z"></path>				<path class="st0" d="M144.7,97.8c0.3-0.1,0.8,0,0.9-0.1c0.2-0.1,0.4-0.1,0.6-0.1c0.2,0,0.8,0,1,0c0.2,0.1,0.2,0.1,0.4,0.1     c0.2,0,0.7-0.1,0.9,0c0.2,0.1,0.1,0.3,0,0.3c-0.2,0-0.8-0.1-1-0.1c-0.2,0-0.3,0.1-0.7,0.1c-0.4,0-0.8,0.3-1.2,0.3     c-0.5,0-0.7,0.4-1.1,0.6c-0.2,0.1-0.6,0.1-0.9,0.1c0,0-0.5,0.5-1.1,0.7c-0.5,0.2-1.1,0.3-1.2,0.4c-0.2,0.2-0.8,0.4-1,0.6     c-0.2,0.3-0.4,0.3-0.4,0.1c0-0.2,0.1-0.8,0.4-1c0.3-0.2,1.1-0.8,1.4-0.9c0.3-0.1,1.2-0.2,1.4-0.4     C143.3,98.4,144.3,97.8,144.7,97.8L144.7,97.8z"></path>			</g>		</g>		<path class="st0" d="M81.4,129.9l0.2-0.6c0,0,0.9-1,1.2-0.9c0.3,0.1,0.6-1.2,0.1-1.3c-0.5-0.1-1.1-0.5-0.6-0.9   c0.5-0.4,0.6-1.1,1-0.9c0.4,0.3,5.5-1.5,5.3-2.7c-0.2-1.1,2.7,0,2.2-1.6c-0.4-1.6,0.9-0.4,0.9-0.4l8.7-7.2c0,0-0.1-1.3,0.3-0.9   c0.4,0.3,0.7,0.2,1,0.2c0.3,0,0.8-1,0.8-1s0.6-0.3,1,0.3c0.4,0.6,1.5,0.4,1.5,0.4s0.7-1.8,1.2-1.5c0.5,0.3,1.5-0.5,1.5-0.7   c-0.1-0.2,1.2-0.6,1.2-0.6s-0.5-1.1,0-1c0.5,0.1,0.6-0.7,1.3-0.2c0.7,0.5,0.3-0.6,0.5-0.6c0.3,0,1.5-0.6,1.7-0.2   c0.2,0.4,0.8-0.2,0.8-0.2s0.2-0.7,1,0c0.7,0.7,0.7,0.5,0.5,0.6c-0.1,0.1,0.7-0.1,0.7-0.1s0.1-0.7,0.8,0.3c0.6,0.9,0.2,0.9,0.4,0.7   c0.1-0.2,0.4,2.7,1.6,1.3c1.2-1.4,1.1-0.2,1.1-0.2s0.5-0.2,0.7-0.3c0.2-0.2,0.8-0.9,1.1-0.9c0.3,0,1.4,0.2,1.5,0.7   c0.1,0.4,5.3,1.9,5.3,1.3c0-0.5,4,0.4,4,0.1c0-0.3,1.4-1,1.5-0.9c0.1,0.1,1.1-0.6,1.8,0.4c0.7,1,1.3,0.1,1.3,0.1s0.7-1.1,1.4-0.6   c0.7,0.5,0.9-0.9,3,1c2.1,1.9,1.7,0.1,1.8,0c0,0,3.4-2.8,3.6-2.7c0.2,0.1,2.8-0.5,3.5,0.1c0.8,0.7,1.7-1.5,1.8-1.5   c0.1,0,0.8,0,1.4,0.5c0.6,0.5,0.6-1.1,0.6-1.1s-0.2-0.5-0.4-0.4c-0.3,0.1-0.5-0.2-0.5-0.1c-0.1,0.1-0.1,0.5-0.1,0.5   s-1.1,0.9-1.1-0.3c0-1.1-0.5-0.4-0.6-0.4c-0.1,0-1.7,0.3-1.4-0.6c0.3-0.8,1.8,0,1.8,0s0.1,0.3,0.3,0.3c0.1,0,0.8-0.1,0.8-0.1   s0.5-0.3,0.6,0.1c0.1,0.4,0.3,0.3,0.3,0.3s1.2-0.5,1.5,0c0.3,0.5,0.2,0.5,0.2,0.5s1.6-0.4,1.4,0.7c-0.2,1.1,3.3,1.2,3.1,1.2   c-0.1,0,7,0.9,8.9-0.5c1.9-1.4,2.4-1.5,2.5-1.8c0.1-0.3,0.7-0.3,1.6,0.5c0.8,0.8,3.3,1.2,3.3,1.2s0,0.3-0.1,0.3   c-0.1,0-0.8-0.2-0.9,0c0,0.2,0,1.4,0.9,1c0,0,0.7,0.4,0.7,0.1c0-0.3,0-0.7-0.1-0.7c-0.1,0-0.3-0.3-0.3-0.3s0.3-0.3,1.1,0.2   c0.8,0.5,1.4,0.3,1.4,0.3l1.1,0.2c0,0,0.4,0.1-0.7,0.9c-1.1,0.9,0,0.8,0,0.8s0.6,0.5,0.7,0.2c0.1-0.3,0.4-0.9,1.5,0.1   c1.1,1,0.8-0.3,0.8-0.3s0.6-0.6,0.2-0.7c-0.4,0-1.9-0.3-1.9-0.6c0.1-0.2,2.5-0.1,3,0.1c0.5,0.1,0.9,0.4,0.8,0.5   c-0.1,0.1,2.6,0,2.6,0l10,8.6c0,0,0.3,0.8-1.9,0c0,0-2.3-2.2-2.8-2c-0.5,0.2-0.7-0.4-1.3,0.3c-0.7,0.7-1-0.9-1-0.9s-0.9-0.4-1,0.1   c-0.1,0.5-1.4,0.2,0,0.8c0,0,1-0.7,1.3,0.6c0.3,1.3-0.2,1.3-0.2,1.3l-0.1,0.5c0,0,1,0.4,0.7,1c-0.3,0.5,0.3,0.4,0.3,0.4   s1.9-0.2,3,1.8c0,0,1.3,1.1,1.9-0.2c0,0-2.9-1.5-4-2.7c-1-1.2,2.5-0.1,2.8,0.5c0.3,0.6,0.7,0.7,0.7,0.7s1.7,0.3,1.8,1.7   c0.1,1.4,1.7,1.4,1.7,0.6c-0.1-0.8,1.5-0.7,1.5-0.7s0.6-0.7,0.8-0.7c0.2,0.1,1.1,0,1.1,0.3c0,0.3-0.2,1.1-0.2,1.1s-0.8-0.5-1.3,0   c-0.5,0.5,0.4,1.2,0.4,1.2s1.2-0.1,0.9-0.6c-0.3-0.5,1-0.4,1-0.4s0.5,0.1,0.2-0.4c-0.3-0.5-0.4-0.7-0.4-0.7s-5.2-2.4-5.7-2.8   c-0.4-0.5,1.2-0.4,1.2-0.4s4.5,3,4.5,2.4c0-0.5,2.4,0.5,3.1,1.9c0.7,1.4,1.2,3.1,1.6,3c0,0,1.2,1.5,1.6,1.3   c0.3-0.2,0.6,0.7-1.6,0.5c-2.1-0.2-2-0.7-2-0.7s-0.3-0.1-0.8,0.6c-0.4,0.7-1.5-0.1-1.5-0.1s-2.1,2.5-2.3,2.2   c-0.2-0.3-0.6,0.4-0.6,0.4s-1.3,0.3-1.3,0.1c0-0.2-0.9,1.2-1.3,0.9c0,0-0.3,0.6-0.9,0.4c-0.6-0.2-2.4,2.4-4.3,1.1   c0,0-0.3,0.1-0.5,0.4c-0.2,0.3-0.7,0.3-1.9-0.6c0,0-0.2,0-0.1,0.2c0.1,0.1-0.3,3.3-2.8,0.5c0,0-0.3-0.3-0.5,0.2   c-0.1,0.4-0.2,1.9-0.4,1.8c-0.2-0.1-0.8,0.6-1.5-0.8c0,0-0.4-0.3-0.4,0.3c0,0.7-1.7,2.4-3.8,0.6c0,0-1.3,0.2-2.3-0.6   c-1-0.8-1.2,0-3.5-3c0,0-1.5-0.4-2.7,1.7c0,0-0.9,0.7-1.2,0.6c-0.4-0.1-0.8,0.9-0.8,0.9s1,2.7,0.1,2.8c-0.9,0.1-1.3-0.2-1.3-0.3   c0-0.1-0.7,0-0.7,0l-0.1,0.7c0,0,1.2,2.1-0.7,2c0,0-0.5,0.7,0.1,1.2c0.6,0.5,0.7,2-0.5,1.9c-1.2,0-3.6,0.7-4.1,2.8   c-0.5,2.1-2.2,1.7-2.2,1.7s0.1,1.6-1.3,1c0,0-1.6,1.4-2.1,1.4c-0.5,0-0.1,0.8-1.1,0.3c-1-0.5-0.8,2.3-0.4,2.4c0.4,0,0,0.7-0.2,0.6   c-0.2-0.1-1.7,0.1-1.8-0.5c-0.1-0.6-0.1-1.9-1.1-1.5c-1,0.3-2.8-0.7-3-1.4c-0.2-0.7,0.5-1.3,0.5-1.3s-0.1-0.9-1.6-0.3   c-1.4,0.6-1.3,2.9-2.4,2.2c0,0-0.5,0.6-0.4,0.9c0.1,0.2-1.5,2.1-1.8,1.6c-0.3-0.5,0.1,1.9-0.5,1.8c-0.6,0-0.5,0.1-0.5,0.1   s-1,0.9-2.1-0.1c-1.1-1-0.6-0.7-0.6-0.7s-0.8-0.3-0.4,0.5c0.4,0.9-1.2-0.1-1.1-0.3c0.2-0.1-0.5-0.4-0.5-0.4s-0.3,0.1-0.3,0.5   c0,0.3-2.9-0.4-3.5,0.3c-0.7,0.7-1.2,0.3-0.9,1.7c0.3,1.3,0.6,1.2,0.3,2.3c-0.3,1.1,1,0.8,0.4,2.3c0,0,1.6,1.7,0.1,1.8   c0,0-0.3,1.1,0.5,1.4c0.8,0.3,0.3,0.7,0.1,0.8c-0.1,0.1-0.9,1.6-1.3,0.1c-0.4-1.5-3.7,1.1-3.6,2.2c0.1,1.1-0.1,5.1-2.7,4.1   c-2.5-1-4.8-0.2-4.8,0.3c0,0.5-0.7-0.1-0.5-1c0,0-2.1,0.2-0.9-1.5c0,0-1.6,0-1.7-0.5c-0.1-0.6-0.3-1.8-0.3-1.8s-1.8-1.5-1.7-1.7   c0.1-0.2,0.9-1.5,2.6-1.9c1.7-0.5-1.2-1-1.2-1s-0.9,2.2-2.4,1.7c0,0-0.7,1.4-1,1.1c0,0-0.2,1.6-1,1.1c-0.9-0.5,0.3-1.3,0.3-1.3   s-0.5-1.7,0.8-1.4c1.3,0.3-0.5-2.5-1.1-1.9c-0.6,0.6-0.2,1.2-0.2,1.2s-0.6,1.6-1.1,1c-0.5-0.6-0.7,0.9-1.6-0.9   c0,0,0.1-0.6,1.6-1.4c1.5-0.7-1-1.3-1-1.3s-0.6-0.7,0.5-2.1c1.1-1.4-0.2-1.3-0.2-1.3s-0.3-1,0.7-1c1,0,0-0.6,0-0.6   s-0.6-0.6,0.1-0.6c0.7,0,0.3-1.3,0.3-1.3s-0.5,0.1-0.7-0.5c-0.2-0.6-2.9-2-5.6-0.7c0,0-1.2-0.6-1.3-1.3c-0.1-0.8-3.7,0-3.7,0   s-0.8,1.2-1.1,1.1c-0.3-0.1-1.1,0.1-1.1,0.1s-0.1,1.2-1.2,0c-1.2-1.2-1.2,0.4-1.2,0.4s-1.1,0.5-1.1-1.2c0-1.7,0.2-1.5,0.2-1.5   s-1.9,0.2-2.7-0.3c-0.9-0.5-3.3-2.3-3-2.6c0.3-0.3-1.1,0-1.1,0l-1.8-2l-1.5,0.1l-0.3-1.5c0,0-0.6,0.3-0.6-0.4   c0-0.7-0.5-0.9-0.5-0.9s-0.8-0.3-0.9-0.2c-0.1,0.1-0.6,0.8-2.2-0.4c-1.6-1.2-1.2-0.9-1.2-0.9s-0.9,0.3-1.3-0.2   c-0.5-0.4-1.2-0.6-1.2-0.6s0-1.2,1.3-1.4c1.2-0.1,0.9-1.3,0.9-1.3s0.3-1,2.1-0.3c0,0,1.2-3.2,0.3-3.3c-0.9-0.1-0.6-1.5-0.6-1.5   L81.4,129.9z"></path>	</g>	<g>		<g>			<path class="st1" d="M74.9,43c12.9-14.4,32.2-22.3,51.3-22.6c0.7,0.6,2.1,1.9,2.9,2.5c-1.3,0.7-3.8,2-5.1,2.7    c-11.4,4.5-22.3,10.4-31.5,18.5c0.6,1.7,1.2,3.5,1.9,5.2c0.5,0.9,1,1.7,1.6,2.5c8.4,11.8,19.5,21.8,26.2,34.8    c0.2,0.7,0.6,2.1,0.8,2.8c-12.1,0-19.4-10.8-29.7-15.2c-0.5,12.3,10.9,23.3,5,35.5c-10.3-12.4-17.5-27-27.7-39.5    C62.7,79.1,61,91.5,53,100.1c-0.7-15.9,5.4-30.9,11.6-45.2c-0.6,0.1,4.7-5.1,4.7-5.1C71.2,47.5,74.9,43,74.9,43z"></path>		</g>		<g>			<path class="st2" d="M150.1,22.9c22.2-2.3,46.5,2.3,62.9,18.5c0.3,1,0.8,3,1.1,4c-16.8-7.1-34.7-12.7-53.3-11.2    c-0.5,17.7,1.1,35.5-2,52.9c-0.9,0-2.7-0.1-3.6-0.1c-7.9-7.9-5.8-20.2-11.7-29.1c-9,8.4-5.8,26.1-19.7,29.7    c0-15.9,4.2-31.4,3.8-47.3c-11.6,0.9-20.7,8.7-31.7,11.5c-0.6-0.8-1.1-1.7-1.6-2.5c8.5-11,20.7-18.7,34.1-22.2    C135.5,25.4,142.8,24,150.1,22.9z"></path>		</g>		<g>			<path class="st3" d="M162.2,43.7c18.2-2.1,37.7-2.4,54.3,6.5c0.5,0.3,1.4,1,1.9,1.3c1,0.7,2.1,1.4,3.2,2    c6.8,3.4,12.8,8.2,17.8,13.9c10.4,12.3,18.8,27.7,18.4,44.3c-8.4-12.8-16-26.7-28.1-36.5c-1.6-1.3-4.1-3.1-6.1-1.6    c-12.3,9-20.2,22.6-31.6,32.6c-1.9,1.1-3.8,2.2-5.8,3.2c-0.1-3.6-0.2-7.2-0.1-10.8c3.3-6.8,7.5-13.2,9.3-20.6    c-12,2.8-21.2,13-34.1,12.3c7.9-14.6,23.4-22.8,34.1-35C185.4,48.7,172.7,49.3,162.2,43.7z"></path>		</g>		<g>			<path class="st4" d="M50.8,57.9c4.6-3.4,8.8-8.1,14.9-8.1c-0.9,2-2.1,3.8-3.4,5.6C50.7,66.4,42.3,81.2,40,97.2    c17.6,5.9,35.8,9.9,52.6,17.7c-9.6,9.6-23.6,1.6-35,6c5.6,6.2,12.7,10.6,19.4,15.3c0.5,0.7,1.6,2,2.1,2.6c0.7,2.5,1.3,5.1,2,7.7    c-16.4-3.5-30.7-12.8-46.6-17.9c0,12.3,2.2,24.4,5.4,36.3c0.1,1,0.4,3,0.5,4c-7.7-7.3-13-16.8-15.7-27    C14.8,112,27,77.7,50.8,57.9z"></path>		</g>		<g>			<path class="st5" d="M218.5,79.3c19.4,6.4,32.7,23.8,39.9,42.3c2,10,4.7,20.2,2.4,30.4c-1.6,11.2-7.5,21.2-15.5,29.1    c6-15,6.8-31.7,3.5-47.5c-19,0.7-37.6,5.4-56.6,5.8c2.2-2.7,4.4-5.4,6.8-7.9c2.2-0.8,4.3-1.6,6.5-2.4c0.7-0.2,1.5-0.4,2.2-0.6    c5-1.2,9.5-3.8,13.6-6.9c-9.6-3.5-19.9-3.9-29.8-6.5c-0.3-0.9-1-2.6-1.3-3.5c0.1-0.2,0.2-0.7,0.3-0.9c15.5-3.6,31.6-2.2,47.4-3.6    C232.4,97,222.7,90,218.5,79.3z"></path>		</g>		<g>			<path class="st6" d="M40,164.9c2.6-3,4.7-6.8,8.5-8.5c5.8-1.4,12.4-0.1,16.5,4.5c6.1,6.8,6.4,17,3,25.2c-1.8,0.2-3.6,0.4-5.4,0.6    c-0.7-2.3-1.3-4.7-2-7c1.4-1.1,2.7-2.2,4.1-3.3c0-1.7,0-3.4-0.1-5.1c-1.1-1.2-2.2-2.5-3.3-3.7c-5.4-0.2-11.1-0.4-15.8,2.7    c0.3,2.9,0.6,5.7,0.9,8.6c2.1,0.9,4.2,1.9,6.3,2.8c1.3,3.4,2.5,6.7,3.7,10.1c-3.9-1.3-7.8-2.7-11.6-4.1    c-3.5-5.7-4.6-12.2-4.4-18.7C40.4,167.9,40.1,165.9,40,164.9z"></path>		</g>		<g>			<g>				<path class="st7" d="M217.6,164c2.3-4.4,7.8-5.1,11.8-2.8c0.8,1.8,1.7,3.6,2.5,5.4c3.9-3,7.9-5.9,11.9-8.8     c0,4.3-0.1,8.5-0.3,12.8c-3.8,1.7-7.6,3.4-11.5,4.9c-0.8,1.7-1.5,3.5-2.3,5.2c3.8,0.7,7.6,1.5,11.4,2.3     c-1.1,3.6-2.2,7.1-3.4,10.7c-9.6-2.2-18.9-5.5-28-9.3C213.3,178,214.4,170.6,217.6,164z M220.5,169.7c-0.9,2.6-1.9,5.2-2.8,7.9     c2.5,0.8,4.9,1.6,7.4,2.4c1.2-3.2,1.5-6.7,1.3-10.1C224.5,169.8,222.5,169.8,220.5,169.7z"></path>			</g>		</g>		<g>			<g>				<path class="st8" d="M64.6,191.8c5.3-0.9,11.6-1.4,15.9,2.6c4.9,3.9,10.7,9.5,9.2,16.4c-2.4,6.3-8.5,12.1-15.7,11.5     c-6.6,0.8-11.8-3.9-15.8-8.5c-2.9-3.7-5.6-8.3-5-13.2C55.4,196.1,59.7,192.8,64.6,191.8z M72.6,199.5c-4,2.2-11.3,3.6-10.1,9.7     c-0.2,4.7,5.7,5.1,9.1,4.1c4.5-2.4,10.1-5.4,10.4-11.1C79,200.9,75.9,197.3,72.6,199.5z"></path>			</g>		</g>		<g>			<path class="st9" d="M206.2,191.1c8.9,3.3,17.4,7.9,26.2,11.6c-1.6,3.5-4.1,6.6-6.4,9.7c-8.7-4.5-17.1-9.6-25.2-15    C202.5,195.3,204.2,193.1,206.2,191.1z"></path>		</g>		<g>			<path class="st10" d="M193.5,204.3c1.8-1.6,3.7-3.3,5.5-5c5.6,8,10.4,16.5,14.6,25.2c-3.8,2.7-7.4,5.8-11.8,7.7    c-10.1-3.5-19.6-9.5-27.2-17c2.9-1.3,5.8-2.6,8.8-3.9c6.1,4.7,12.7,8.7,19.9,11.4C200.2,216.6,196.9,210.5,193.5,204.3z"></path>		</g>		<g>			<path class="st11" d="M99.5,211.2c3.1,1.2,6.1,2.5,9.1,3.9c0.7,5.8,1.4,11.7,4,17c1.4-2.5,2.8-5,4.2-7.5c0.1-0.9,0.4-2.9,0.5-3.8    c0.9-0.6,2.7-1.7,3.6-2.2c1.2,0.5,3.6,1.5,4.8,2c-1.9,8.6-4.4,17.1-7.4,25.4c-3.9-0.7-7.8-1.5-11.7-2.3c-2.5-7-4.2-14.2-5.2-21.5    c-3.9,4.2-7.4,8.8-10.6,13.6c-3.9,0.1-7.2-1.6-10-4.3C87.2,225,93.7,218.4,99.5,211.2z"></path>		</g>		<g>			<path class="st12" d="M163.4,219.3c2.8-1.1,5.6-1.9,8.4-2.8c3.8,8.3,9.1,15.8,12.9,24.1c-4,2.1-8.5,3-13,3.6    C169.2,235.8,164.9,228,163.4,219.3z"></path>		</g>		<g>			<path class="st0" d="M128.5,221.3c3.4,0.1,6.7,0.3,10.1,0.4c1.9,6.8,4,13.7,7.9,19.7c2.1-6.4,4-12.9,5-19.6    c2.8-0.7,5.6-1.4,8.4-2c-0.8,9.9-3.1,19.8-7.5,28.7c-5,0-9.9,0-14.8,0C133,240,130.4,230.7,128.5,221.3z"></path>		</g>		<g>			<path class="st3" d="M239,44.1c0,5.8-4.8,10.5-10.7,10.5c-5.9,0-10.7-4.7-10.7-10.5c0-5.8,4.8-10.5,10.7-10.5    C234.3,33.6,239,38.3,239,44.1z"></path>			<path class="st2" d="M154.8,10.5c0,5.8-4.8,10.5-10.7,10.5c-5.9,0-10.7-4.7-10.7-10.5c0-5.8,4.8-10.5,10.7-10.5    C150,0,154.8,4.7,154.8,10.5z"></path>			<path class="st1" d="M74.3,36.5c0,5.8-4.8,10.5-10.7,10.5C57.7,47,53,42.3,53,36.5C53,30.7,57.7,26,63.6,26    C69.5,26,74.3,30.7,74.3,36.5z"></path>			<path class="st4" d="M21.3,105.2c0,5.8-4.8,10.5-10.7,10.5c-5.9,0-10.7-4.7-10.7-10.5c0-5.8,4.8-10.5,10.7-10.5    C16.5,94.7,21.3,99.4,21.3,105.2z"></path>			<path class="st5" d="M280.4,121c0,5.8-4.8,10.5-10.7,10.5c-5.9,0-10.7-4.7-10.7-10.5c0-5.8,4.8-10.5,10.7-10.5    C275.6,110.5,280.4,115.2,280.4,121z"></path>		</g>	</g></g></svg>