<?xml version="1.0" encoding="UTF-8"?>
<svg id="Capa_1" data-name="Capa 1" xmlns="http://www.w3.org/2000/svg" viewBox="0 0 1627.01 1034.02">
  <defs>
    <style>
      .cls-1, .cls-2 {
        fill-rule: evenodd;
      }

      .cls-1, .cls-2, .cls-3, .cls-4 {
        stroke-width: 0px;
      }

      .cls-1, .cls-4 {
        fill: #88cfe0;
      }

      .cls-2, .cls-3 {
        fill: #e30a15;
      }
    </style>
  </defs>
  <g>
    <polygon class="cls-2" points="1270.47 0 1275.28 66.99 1339.72 86.17 1277.97 111.94 1279.7 178.72 1236.14 127.71 1172.88 150.01 1207.89 93.1 1166.81 39.69 1232.18 55.41 1270.47 0"/>
    <polygon class="cls-1" points="1494.35 136.94 1475.14 185.27 1514.03 220.57 1461.68 217.47 1440.24 265.2 1427.07 214.37 1375 208.5 1419.34 180.78 1408.63 129.66 1449.03 162.97 1494.35 136.94"/>
    <polygon class="cls-1" points="1627.01 350.96 1599.98 376.45 1613.98 410.9 1581.52 392.97 1552.81 416.98 1559.92 380.35 1528.19 360.9 1565.05 356.14 1574.08 320.01 1589.95 353.96 1627.01 350.96"/>
    <polygon class="cls-1" points="1007.48 6.07 999.87 57.51 948.98 68.67 995.36 92.12 990.44 144.29 1026.88 106.79 1074.88 127.83 1050.86 81.73 1085.74 42.86 1034.09 51.43 1007.48 6.07"/>
    <polygon class="cls-1" points="785.45 124.74 796.4 160.43 766.68 183.13 804.09 183.98 816.56 219.07 828.78 183.8 866.3 182.97 836.47 160.28 847.09 124.58 816.36 146.01 785.45 124.74"/>
  </g>
  <path class="cls-4" d="M320.52,829.78h-182.59v125.45H0v-446.63h355.99v125.45h-218.06v70.28h182.59v125.45Z"/>
  <path class="cls-4" d="M839.77,736.28v218.95h-144.49v-164.21h-157.63v164.21h-144.51v-446.63h144.51v157.63h157.63v-157.63h108.86c-.22,6.77-.34,13.55-.34,20.36,0,12.06.34,24.02,1.06,35.89,3.45,59.87,15.49,117.42,34.9,171.44Z"/>
  <g>
    <path class="cls-3" d="M1228.32,184.46c-4.01,17.03-7.47,34.24-12.64,50.91-11.44,37.11-27.99,72.15-45.48,106.7-22.42,44.26-45.6,88.1-67.91,132.41-35.75,71.09-64.94,144.49-75.36,224.1-3.07,23.38-6.41,46.83-5.21,70.47,1.14,22.94,2.71,45.81,6.03,68.63,8.57,58.63,27.35,113.85,52.96,166.97,4.77,9.92,9.82,19.7,15.05,29.37-91.91-63.32-165.69-151.1-211.91-253.93-6.45-14.31-12.34-28.91-17.69-43.8-19.42-54.02-31.46-111.57-34.9-171.44-.72-11.86-1.06-23.82-1.06-35.89,0-6.81.12-13.59.34-20.36.08-2.08.16-4.19.24-6.27,13.53,2.32,27.43,3.55,41.62,3.55,77.26,0,146.13-35.97,190.75-92.05.04-.02.06-.04.08-.08,18.35-18.96,35.07-39.39,50.96-60.55,31.28-41.66,59.19-85.56,84.98-130.8,8.62-15.13,17.15-30.32,25.73-45.48,1.08.14,2.14.28,3.19.42.12,2.38.8,4.89.26,7.13Z"/>
    <path class="cls-3" d="M864.82,366.85c.15-38.93,31.51-70.22,70.36-70.2,39.14.01,70.65,31.8,70.43,71.07-.21,38.29-31.81,69.78-70.06,69.79-39.46.01-70.89-31.38-70.73-70.65Z"/>
  </g>
  <path class="cls-4" d="M1425.64,810.08c0,45.1-16.87,81.67-50.57,109.68-33.72,28.03-79.71,42.04-137.94,42.04-31.1,0-61.96-4.05-92.61-12.14-22.74-6.01-41.98-12.44-57.71-19.3-14.17-47.49-21.76-97.8-21.76-149.88,0-1.38-.02-.64,0-2.02l40.05,24.53c21.11,12.33,41.28,21.98,66.02,30.74,24.73,8.76,47.61,13.14,68.63,13.14,12.7,0,22.56-2.75,29.55-8.22,7.01-5.47,10.52-12.16,10.52-20.04,0-10.5-9.64-18.61-28.89-24.31l-80.79-22.32c-36.79-10.94-63.5-26.05-80.13-45.32-7.85-9.1-13.89-19.62-18.03-31.58-4.63-13.32-6.93-28.41-6.93-45.26,0-42.92,17.07-78.17,51.23-105.76,2.67-2.14,5.39-4.23,8.22-6.19,33.24-23.46,76.9-35.19,131.02-35.19,30.22,0,60.21,3.41,89.99,10.18,29.78,6.79,54.08,15.23,72.9,25.29l-40.05,120.2c-18.39-11.82-39.53-21.56-63.38-29.23-23.88-7.65-45.89-11.5-66.02-11.5-26.27,0-39.41,8.12-39.41,24.31,0,4.83,1.76,8.78,5.27,11.82,3.49,3.07,10.06,6.15,19.7,9.2l72.25,23c42.04,13.12,72.35,29.66,90.97,49.57,18.59,19.94,27.91,44.78,27.91,74.56Z"/>
</svg>