<svg xmlns="http://www.w3.org/2000/svg" xmlns:xlink="http://www.w3.org/1999/xlink" id="Capa_1" x="0px" y="0px" viewBox="0 0 630.1 494.2" style="enable-background:new 0 0 630.1 494.2;" xml:space="preserve"><style type="text/css">	.st0{fill-rule:evenodd;clip-rule:evenodd;fill:#020303;}	.st1{fill-rule:evenodd;clip-rule:evenodd;fill:#5D62AA;}	.st2{fill-rule:evenodd;clip-rule:evenodd;fill:#59B031;}	.st3{fill-rule:evenodd;clip-rule:evenodd;fill:#5DB130;}	.st4{fill-rule:evenodd;clip-rule:evenodd;fill:#5FB130;}	.st5{fill-rule:evenodd;clip-rule:evenodd;fill:#F5FAF9;}	.st6{fill-rule:evenodd;clip-rule:evenodd;fill:#203C89;}	.st7{fill-rule:evenodd;clip-rule:evenodd;fill:#45BFE0;}	.st8{fill-rule:evenodd;clip-rule:evenodd;fill:#5FC4E0;}	.st9{fill-rule:evenodd;clip-rule:evenodd;fill:#7FBE68;}	.st10{fill-rule:evenodd;clip-rule:evenodd;fill:#7F7FA1;}	.st11{fill-rule:evenodd;clip-rule:evenodd;fill:#748BB1;}	.st12{fill-rule:evenodd;clip-rule:evenodd;fill:#5C6EA6;}</style><g>	<path class="st0" d="M21.5,494.2c6.4-1.5,5.8-6.7,5.6-13.7c-0.2-6.9-0.3-10.1-1.9-16.5c-6.9-27.8-20.6-63.5-17.8-91.3  c1.2-12.1,3.9-20.5,11.5-25.3c13.3-8.2,34.9-2.4,32.4,15.2c-0.6,4.3-1.7,11-3.7,14.2c-4.6,7.4-19.7-8.5-24.6-5.1l21.9,13.6  c9.3-4.9,16.7-12.8,14.3-27.9c-2.1-13-8.6-21.1-21.7-22.8c-10.7-1.4-23.6,10-28,14.6c-15.7,16.5-8.7,49.5-1.8,71.6  C14,441.2,8,479.6,21.5,494.2z"></path>	<path class="st0" d="M346.2,357.7c-7.1-10.8-3.3-33.1-17.7-30.5c-3.3,0.6-14.6,12-17.2,14.9c-15.5,16.8-10.8,8.6-26.9,21.1  c-2.2,1.7-6.4,6.1-7.4,9.1c-1.6,4.9-0.5,10.1,3.6,11c9.7,2.2,37.3-43.6,50.7-44.5l6.9,13.3c1.3,4.5,4.6,11.3,7,13.3  c7.8,6.3,11.8-11.8,24.4-13.7c5.8,8.4,14.7,22,22.4,27.6c6.9,5,13.3,0.3,17.7-3.4c3.1-2.7,11.4-8.4,6.4-15.4l-11.5,11.8  c-7.5,2.7-14.5-2-17-5.9c-2.8-4.4-3.8-11-7-16.2c-5.4-8.9-8-8.5-10-12.5L346.2,357.7z"></path>	<path class="st0" d="M612.5,340.2c0.1,10.8-6.2,15.7-13.6,26.2c-4.6,6.5-0.8,10,6.5,5.8c3.4-2,8-6.2,10.4-9.1  c5.1-6.4,25.2-32.9,6.6-37.2c-5.2-1.2-11,1.7-14.5,3.8c-11.7,7.1-31.5,27.5-28.2,50.9c2.8,19.8,25.5,31.1,47.9,31.3l-3.3-6.1  c-3.5-3.4-24.1-8.5-33.9-26.1c-5.5-9.9-3.7-17.1,2.1-25.7C596.1,348.6,603.3,341.3,612.5,340.2z"></path>	<path class="st0" d="M539.1,357.4c9.8,8.9,14.5,25.4,20.7,27.7l-8.2-26.7c-4.2-6.3-11.5-12.5-21.1-14.9  c-24.6-6-34.7,19.8-48.6,21.4l-9.8-25.5l-7.1,2.3c-0.7,12,4.3,31,9.6,39.6c5.2,8.5,19.8-7.6,29.1-14.8c4.6-3.5,9-6.8,15.6-9.2  C525,355.4,534.6,353.3,539.1,357.4z"></path>	<path class="st0" d="M91.4,346.4c-8.1-0.1-12.8,1.9-13.3,9.8c-0.6,8.5,2.1,28,11.6,33.7c7.9,4.7,11,1.8,16.1-2.1  c8.9-6.8,17.3-13,26-19.7c7.6-5.8,19-12,31.3-13.7c8.8-1.2,11,1.7,16.6,5.5c8.8,6,23-12.4-5.1-14.7c-7.1-0.6-13.8,0.8-20.1,2.8  c-16.1,5-30.4,15.9-43.5,24.7c-7.8,5.3-8.2,7.6-14.7,6.8L91.4,346.4z"></path>	<path class="st1" d="M331.1,206.9c-2.2-2.8-4.2-20.7-2.1-25.3l2.2,0.1c1.2,1.4,0.8,0.1,1.2,2.6l-0.8,9  C331.3,197.8,331.3,202.4,331.1,206.9L331.1,206.9z M321.8,184.1c-1.8,13.6-4,0.9-0.3,24.8l-1.8-7.1l-4.2,66.9l2-2.1  c1.9-3.3-0.7-0.3-0.9-9.4c-0.1-7.4,0.3-8.8,1.2-15.8l1.8,19.2c4.8-7.8,0.3-8.3,1.1-22.9l3.2-26.2c3.6,4.8,1.9,3.3,7.7,6.7l1.7,43.4  l3.1-2.2l-0.8-7.1c0.1,0.2,0.2,0.3,0.2,0.6c0.1,0.3,0.2,0.5,0.2,0.6l2.3,3.3c3.5-12.1,2.5,0.6,0.8-15.9  c-1.1-10.9-0.8-18.3-1.6-28.8c-0.3-3.6,0.2-6.9,0.1-10.5l-0.9-19.8c12.8-0.3,15.1-3.3,25.2-9.6c-5.6,1.4-3.5,3-8.6,1.6  c1.8-1.3,0.3-0.8,2.3-0.6c0,0-0.9-0.9-1.1-1l-1.6-1.7c-29.4,7-27.4,1.4-41.4-6.4l-12.6-6.1c2.4,10,2.2,3.9,17.5,14.7l6.3,4.4  l-18.9-10c0.6,2.7,1.4,4.8,3.1,6.9c2.7,3.4,1.2,0.4,5.2,2.3l12.2,5.9c0.4,7,0.3,14.6,1.5,21.5c0.6,3.3,1.4,3.2,0.8,6.2  c-1.4-5.9-3.1-23-3.1-23C322.4,183.4,323.5,185.7,321.8,184.1z"></path>	<path class="st0" d="M261.9,353.6c3.2-26.8-18.3-37.1-26.3-33.5c0.6,4.8,9.8,7.7,13.5,11.6c3.7,3.9,7.6,9.7,8,16.9  c0.6,13.6-11.4,24.7-20.2,28.7c-20.7,9.1-29.8-8.4-20.8-17.1c8.8-8.4,29.9-4.7,17.8-23.5l-31.8,30.5c-2.9,20.9,14.6,31.2,33.2,22  C246.1,383.8,260.1,369.3,261.9,353.6z"></path>	<path class="st2" d="M240.4,190.8c4.9,2.2,0.5,3.6,9.4,4.6c4.6,0.5,9.1,0.2,13.4,0.7c-1.4,3.2-1.5,5-1.3,8.6  c0.1,4.1-2.7,10.9-4.2,15.1c-3.2,9.5-3,6.8-6.6,14c6,5.1,11.8,1.5,15,1.8l7.5,1c0.5-6,4-5.1-18.7-5c0-7-0.2-1.5,1.6-3.7  c3.8-5.4,7.5-20.9,9.1-28.4c0.6-2.8,0.1-2.2,1.8-3.5l18.7-8.1c2.1-2.1,10-13.2,10.6-16c-3.1,4.3-4.8,8.2-8.1,8.9l-0.6-3.1  c-5.8,5.3-8.5,10.4-21.9,11c-21.2,0.9-23.4-9.3-32.1-10.9c2.9,7.8,1.9,5.3,5.1,6.7L240.4,190.8z"></path>	<path class="st3" d="M270.3,158c-0.7,8.2,0.4,3.9,3.1,7.5c-4.8,5.7,0.4,3.8-2,12.2l-12-6.1c-0.3-8.1,5.4-8.7,6.2-14.1l-4.1,0.2  l-3,4.7c0-0.1,0-0.4,0-0.3l-0.7-2.3c-4.6,1.3-0.9,0-5.2-0.4c-2-0.2-5.4,0.2-7.5,0.2c-2.1,0.4-2.2,0.6-3.8,1.4l-0.2,3.2  c1.9,0.3,3,1.7,10.3,3.3c1.7,5.3,0.7,8.8,4.4,12.7c7.8,8.1,22,5.5,21.4-3.6l-2.6-13.8c1.6-1.1,2-1.8,3.4-3.4l6.7,5.2  c1.1-2-2.4,0.3,2.1-4.4C282.4,153,276,147.5,270.3,158z"></path>	<path class="st4" d="M256.3,227.8c-1.8,2.2-1.6-3.2-1.6,3.7c22.7,0,19.2-0.9,18.7,5l-7.5-1c-3.2-0.3-9,3.3-15-1.8  c3.6-7.1,3.4-4.5,6.6-14c1.4-4.2,4.3-11,4.2-15.1c-0.3-0.1-1.9-0.6-2.4-0.8c-0.8,1.6-6.6,12.4-7.7,13.4c-0.3,5-3.3,12.7-5,20.1  c2,1.6,4.2,0.7,9.6,0.3c-2.2,4,0,4.4-0.5,9.5c-0.4,4.2-2.5,5-2.8,8.8l-0.7,2.5c3.5,0.1,3.1-0.5,5.1-2.4c0,0,0.7-0.7,0.8-0.8  c0.1-0.1,0.4-0.3,0.5-0.4c0.1-0.1,0.4-0.3,0.5-0.4l2.8-17.1l5.9,0c-4.7,11.5-0.5,0.6,2.6,20.6c1.2,2.1,2.1,4.1,3,6.1l-0.9-26.6  l7.1-5.8c-0.7-3.8-2.2-8.8-1.5-12.5l-0.6-1.2c-0.4-1-0.8-1.3-1.6-6.9c-0.5-3.5-0.3-5.6-1.8-8l0.8,15l-1.9-4.5l0.3,16.6l-9.7,0  C254.8,230.1,256.1,230.9,256.3,227.8z"></path>	<path class="st1" d="M349.6,154.5c-0.1-3,0.6-5.3,0.7-8.4c0.1-3.4-0.9-6.3-0.7-8.8c-0.2-0.1-0.4-0.6-0.4-0.4  c-0.1,0.1-0.3-0.3-0.4-0.4l-2.8-2.1l2.1,9.6c-1-1.3-0.2-1.7-2.9-6l-4,16.4c-5.9,1.9-9.7-3.9-10.6-9l4.5-17.2l-5.1,0.2  c-0.3,0.5-3.7,10.3-3.3,13.2l4.3,14.5c-2.3-1.3-0.7,0.2-2-2.1c0,0-0.9-2.5-1-2.7c-2.7-8.1-1.4-9.7-0.3-20.3c-3.9,1-7,8.1-6.5,12  c0.6,5.1,6.1,20.3,17.8,20C346.8,162.8,346.1,158,349.6,154.5z"></path>	<path class="st5" d="M316,23.8c1.5-2.2,1.8-1.9,2.6-2.6l1,5.9L316,23.8L316,23.8z M329.8,20.5c2.3-1,1-0.4,2.7-1.7l1.6,5.6  C330,23.2,330.7,24.1,329.8,20.5L329.8,20.5z M325.6,17c1.3,3.8,0.5,1.4,1.1,5.4c-3.8-2-2.9-1.1-4.2-3.9  C326.4,15,324.4,16.6,325.6,17L325.6,17z M317.7,14.9l-2.7,1.6c1.5,3.9,0.7,2.9,4.4,4.7L317.7,14.9L317.7,14.9z M328.3,14  c1.7-2.3,1.2-1.7,3-2.5l1,6.2L328.3,14L328.3,14z M306.6,22.9l0.4,10.3c2.5-0.3,4.3-1.5,6.6-2.4c8.5-3.2,16.4-2.7,26.2-3.3  c-1.2,1-0.1,0.4-1.9,0.9c-1.2,0.3-1.5,0.2-2.7,0.3l-13.3,1.7c1.2,0.4,4.1-0.2,6.1-0.5l8,0.3c-0.2,0.1-0.5,0-0.6,0.3  c-0.1,0.3-0.5,0.2-0.6,0.3l-3,1.9c1.3,0.8,2.5,0.8,4.4,0.6c1.9-0.2,3.1-0.4,5.2-0.4c0.2-0.5,0.5-1.5,0.7-1.7l0.7-3.7  c-1-1.1-1.3-3.3-1.8-5.5l-1.5,2.7l-4.5-1c-0.2-2.5-0.7-0.8,2.3-4.4c-3.8-2.1,3.6,1.6-1.6-0.6l-1.9-0.9l1.4-4l-3-1.8  c1.2-3.6,0.6,0.5,1.3-3.4c-3,1-4.5,2.1-7.7,2.9c-8.1,2-12.9,3.5-19.4,10l1.2,0.6c4.2,1.6-3.6-0.8,1.1,0.4c0.9,0.2,1.4,0.1,1.8,0  L306.6,22.9z"></path>	<path class="st6" d="M305.1,7.2l0,5.4c4.5-1.4,3.2-2.2,7.3-0.8c-2.1,1.7-2.5,0.7-7.2,3.7c0,2.8-0.9,6.7,1.3,7.4l3.9-0.4  c-0.4,0.1-0.9,0.2-1.8,0c-4.7-1.1,3,1.2-1.1-0.4l-1.2-0.6c6.5-6.5,11.3-8,19.4-10c3.2-0.8,4.7-1.9,7.7-2.9c1.7-1.3,2.6-0.9,4.3-0.5  l1.7-1.7c-2-1.1-4.6,0-6.7-0.1l-2.3-0.6l4.7-2.3c-9.4-0.9-3.5-0.9-14.6,0.1l17.9-1.9c-1.1-0.9-0.2-0.5-2-1.1  c-0.9-0.3-1.7-0.4-2.7-0.5c-4.6-0.4-9.3,0.2-13.7,1.4C315.2,2.8,308.8,4.3,305.1,7.2z"></path>	<path class="st6" d="M307,33.2l-0.5,6.4l7.5-2.4c-1.6,3.9,1.8,1.6-3.7,3.5c-1.4,0.5-2.3,0.6-3.9,0.7l0.4,8.7l1.1-0.1l3.6-0.4  c-2.9-0.5-1.1,0.2-4.2-1.3c4.7-2.6,9.3-7.7,15.6-9c3.9-0.8,16.5-4.6,18.4-6.4c-2,0-3.3,0.3-5.2,0.4c-2,0.2-3.1,0.2-4.4-0.6l3-1.9  c0.1-0.1,0.5,0,0.6-0.3c0.1-0.3,0.4-0.1,0.6-0.3l-8-0.3c-2,0.3-4.9,0.9-6.1,0.5l13.3-1.7c1.2-0.1,1.5,0,2.7-0.3  c1.9-0.5,0.7,0.1,1.9-0.9c-9.8,0.6-17.8,0.1-26.2,3.3C311.3,31.7,309.5,32.9,307,33.2z"></path>	<path class="st0" d="M410.5,286.9c0.8,5.2,0.3,6.9,3.6,10.3c8.3,8.4,16-3.2,16.2-4.2c0.7-4.9-4.7-4.2-8.6-4.8l1.8-13.7  c-3.8,0.2-6.7,2.9-8.7,4.8C412.4,281.5,412.4,284.4,410.5,286.9z"></path>	<path class="st0" d="M434,332.3c-1.1,1.4-0.4,0-1,2l-0.2,4.5c0.4,11.5-0.6,29.7,4.8,38.9c7.7-29.8,6.9-16.1-0.5-40.5  C435.8,332.8,436,333.1,434,332.3z"></path>	<path class="st7" d="M306.9,50.3l-0.4-8.7c1.5-0.1,2.4-0.2,3.9-0.7c5.5-2,2.1,0.4,3.7-3.5l-7.5,2.4l0.5-6.4l-0.4-10.3  c-2.3-0.7-1.3-4.6-1.3-7.4c4.7-3,5.1-2,7.2-3.7c-4.1-1.3-2.8-0.6-7.3,0.8l0-5.4c-1.2,1.6-2.8,11.8-2.9,14.5  c-0.1,2.7,1.8,22,1.7,32.1c0,3-0.1,6.1,0.1,9.1c0.2,4.2,0.4,4.6,2.9,7.1L306.9,50.3z"></path>	<g>		<path class="st8" d="M467.2,174.6c3.1,3.5,12.5,8.3,16.4,10.5c-2.1-3.5-8-7-9-8.5l-0.3-1.6c1.6,0,7.2,5.6,8.7,6.9l8.6,7.3   c-2.2-5.9-13.2-16.2-19.4-19.6c-7.2-6.2-19.6-13.8-28.9-19.3l-22.5-13.5c-1.4-0.8-2.1-1.2-3.8-2.2c-2.2-1.3-2.7-1.4-4.1-3.1   c-2.9-0.3-18.5-10.2-22.4-12.4c-8.2-4.6-61.5-35-67.3-37.7l1.4-4.4l-16.7-5.4c-10.8-5-6.1-5.2-10.3-9.5c-5.7,9.5-5.7,6.6-1.7,16   c3.8-0.6,6.5-1.9,9.2,2.7l-8,4.7c-10.2,5.9-52.1,31.4-55.6,32c14.8-9.4,42.5-25.6,55.2-34.6c2.4-1.7,1.4-0.4,2.6-2.8l-24.5,5   c-8.7,2.3-14.3,7.2-22.2,9.6c-0.3,1.1-0.4,0.8-2.8,2.4l17.1-7.3L240,109.6c-4.1,2.9-25.3,16.3-26.8,18.5l-49,26.4   c-10,5.3-41.7,24.9-48.4,25.6l-0.9,0.8c-0.9,1.1-1.1,1.2-1.5,2.9l18-7.4c7.9-3.8,4.8-1.6,6-0.7l-19.7,9.9l7.7-2.6   c10.2-3.6,6.2-1.7,7.4-0.7c-4.5,3.3-15.7,6.3-20.8,7.5l-2.5,0.8c8.9-1.1,10.1-0.8,18.8-4c19.9-7.3,46-21.8,50.8-23.5l1.5,5.9   c0.7,2,1,4.1,1.4,6.2c0.7,4.4,1.5,8.4,2.2,12.7c4.2,29,2.5,29.3,4.3,54.9c0.3,4,2.4,23.8,3.4,26l1-2.9c0.3-2.9-1-7,0.5-9.7   c3.3,6,0.9,6.8,1.9,9.9c0.1,0.2,0.1,0.3,0.1,0.4c0.1,0.1,0.3,0.2,0.6,0.5l0.6,5c4.6-22.4,2.1-35.5,1.2-58.6   c-0.4-10.6-4.4-53.5-3.8-58.5l27.3-15.6c1-0.8,0.5-0.4,1.2-1.2c5.1-0.5,14.4-9.1,18.5-9.2c2.1-3,28.8-18.1,31.7-19.8L305,90.5   c4.3,2.8,8.4,9.6,14,13.8l2.7,0.5c2.9-1.6,25.5,10,29.9,12c5.1,2.4,26.4,11.7,28.9,14.7c3.9,0.5,14.7,7.4,18.6,9.7   c2.9,1.8,6,3.7,8.9,5.4c4.9,2.9,6.6,5.5,8.2,5.7l-0.2,39l-2-35.7c-3.2,1.6-2.9,4.1-5.2,9.6c-1.1,2.6-1.7,3.2-0.9,6   c2.6,9.4,3.7,23.5,4.1,33.5c0.4,9.8-1.2,19-0.4,29.1l3.1,25.9c1.2-12.1-1.6-11.8,2-20.6c3,3.1,2.8,12.4,2.4,19.1   c0.6-5.9,1.8-14.4,2.3-16.7l1.2-35.4l-0.7-48c0.8-2.9-1.4-1.1,1.5-2.2c3.2,3.9,39.5,21.8,46.2,26.5l10.9,7.2   c1-0.6,0.8-0.4,2.7-0.5l-21.5-16C465.5,172.9,464.8,173.3,467.2,174.6z M311.2,86.2c2.1-3,10.3,3.8,13,5.4c4.3,2.6,8.7,4.7,13,7.2   c5.7,3.3,21.2,11.1,25.2,15C352.8,109.5,315.1,90.8,311.2,86.2z"></path>		<path class="st8" d="M195.3,266.7C194.5,266.3,196,269.1,195.3,266.7L195.3,266.7z"></path>		<path class="st8" d="M418.8,264c0.1-1.3,0.2-3.4,0.4-5.9C418.9,261.2,418.7,263.5,418.8,264z"></path>	</g>	<path class="st9" d="M253,255.9c-1.9,1.6-2,2.2-1.8,6.4l2.2-2.5l2.6,2.2l3.3-7.7c-0.2,0.2-0.4,0.3-0.5,0.4  c-0.1,0.1-0.4,0.3-0.5,0.4c-0.2,0.1-0.8,0.8-0.8,0.8c-2,2-1.6,2.5-5.1,2.4L253,255.9z"></path>	<path class="st10" d="M322.5,18.5c1.3,2.8,0.3,1.9,4.2,3.9c-0.5-4,0.3-1.6-1.1-5.4C324.4,16.6,326.4,15,322.5,18.5z"></path>	<path class="st11" d="M315,16.5c1.5,3.9,0.7,2.9,4.4,4.7l-1.7-6.3L315,16.5z"></path>	<path class="st10" d="M329.8,20.5c1,3.5,0.2,2.7,4.2,3.9l-1.6-5.6C330.8,20.1,332.1,19.5,329.8,20.5z"></path>	<path class="st11" d="M328.3,14l3.9,3.7l-1-6.2C329.5,12.3,329.9,11.7,328.3,14z"></path>	<path class="st12" d="M316,23.8l3.6,3.4l-1-5.9C317.8,21.9,317.5,21.6,316,23.8z"></path></g></svg>